<?xml version="1.0" encoding="utf-8"?>
<!-- Generator: Adobe Illustrator 26.5.3, SVG Export Plug-In . SVG Version: 6.00 Build 0)  -->
<svg version="1.1" id="Layer_1" xmlns="http://www.w3.org/2000/svg" xmlns:xlink="http://www.w3.org/1999/xlink" x="0px" y="0px"
	 viewBox="0 0 36.8 28.5" style="enable-background:new 0 0 36.8 28.5;" xml:space="preserve">
<style type="text/css">
	.st0{fill:#F07537;}
</style>
<path id="link-solid" class="st0" d="M34.4,14.9c3.4-3.5,3.3-9.1-0.2-12.4c-3.4-3.3-8.8-3.3-12.2,0l-0.7,0.7L24,5.9l0.7-0.7
	c1.9-1.9,5-1.9,6.9,0c1.9,1.9,1.9,5,0,6.9L24.7,19c-1.9,1.9-5,1.9-6.9,0c-1.5-1.5-1.9-3.9-0.8-5.8c0.1-0.2,0.2-0.4,0.4-0.6l-3.1-2.3
	c-0.3,0.3-0.5,0.7-0.7,1.1c-2.3,4.3-0.7,9.6,3.5,11.9c3.4,1.9,7.7,1.2,10.4-1.5L34.4,14.9z M2.6,13.5c-3.4,3.4-3.4,9,0,12.4
	s9,3.4,12.4,0l0,0l0.7-0.7l-2.8-2.8l-0.7,0.7c-1.9,1.9-5,1.9-6.9,0c-1.9-1.9-1.9-5,0-6.9l0,0l6.9-6.9c1.9-1.9,5-1.9,6.9,0
	c1.5,1.5,1.9,3.9,0.8,5.8c-0.1,0.2-0.2,0.4-0.4,0.6l3.1,2.3c0.3-0.3,0.5-0.7,0.7-1.1c2.3-4.3,0.7-9.6-3.6-11.9
	c-3.4-1.8-7.6-1.2-10.4,1.5L2.6,13.5z"/>
</svg>
