<?xml version="1.0" encoding="utf-8"?>
<!-- Generator: Adobe Illustrator 26.5.3, SVG Export Plug-In . SVG Version: 6.00 Build 0)  -->
<svg version="1.1" id="Layer_1" xmlns="http://www.w3.org/2000/svg" xmlns:xlink="http://www.w3.org/1999/xlink" x="0px" y="0px"
	 viewBox="0 0 35.9 35.9" style="enable-background:new 0 0 35.9 35.9;" xml:space="preserve">
<style type="text/css">
	.st0{fill:#1A5B6E;}
	.st1{fill:none;stroke:#1A5B6E;stroke-width:2;stroke-miterlimit:10;}
</style>
<path class="st0" d="M28.7,17.9c0-0.5-0.2-1-0.4-1.5c0.3-0.5,0.3-1.1,0.2-1.7c-0.2-0.7-0.6-1.3-1.2-1.7c-0.3-0.2-0.7-0.3-1-0.4
	c-0.1,0-0.2,0-0.3,0h-4c0-0.1,0-0.3,0.1-0.4c0.4-1.5,0.2-3.2-0.6-4.5C20.9,6.7,20,6.1,18.9,6c0,0,0,0,0,0c-0.4,0-0.8,0.1-1.2,0.3
	c-0.5,0.3-0.8,0.8-0.7,1.4c0.1,0.9,0.2,1.9,0.2,2.8c-0.3,0.8-0.7,1.5-1.1,2.2c-0.3,0.6-0.7,1.2-1,1.8c-0.2-0.2-0.6-0.4-1-0.4H9.2
	c-0.8,0-1.4,0.6-1.4,1.4v9c0,0.8,0.6,1.4,1.4,1.4h4.9c0.6,0,1.2-0.4,1.3-1c0.4,0.1,0.7,0.3,1.1,0.4c0.1,0,0.2,0.1,0.4,0.1H24
	c0,0,0,0,0,0c0.7,0,1.4-0.3,1.9-0.8s0.8-1.2,0.8-1.9c0,0,0-0.1,0-0.1c0.9-0.6,1.3-1.7,1.1-2.7C28.4,19.4,28.7,18.6,28.7,17.9z
	 M25.7,18.7l-0.2,1c0.2,0.1,0.4,0.2,0.4,0.4s0.1,0.4,0,0.6c-0.1,0.3-0.4,0.5-0.8,0.5c0,0,0,0,0,0h-1.8l1.2,0.9
	c0.4,0.3,0.4,0.8,0.1,1.1c-0.2,0.2-0.3,0.3-0.6,0.3h-7.1c-0.5-0.1-1-0.3-1.4-0.5v-6.1c0.5-0.2,0.9-0.6,1.1-1.1
	c0.1-0.4,0.6-1.2,1.1-2.1c0.9-1.6,1.3-2.4,1.4-2.9c0-1-0.1-1.9-0.2-2.9c0,0,0,0,0,0c0,0,0,0,0,0c0.4,0,0.7,0.2,0.9,0.6
	c0.6,0.9,0.7,2.1,0.4,3.2c-0.2,1.1-0.4,2.1-0.4,2.1l-0.1,0.6h6.1l0,0c0.5,0,0.8,0.4,0.7,0.9c0,0.4-0.4,0.7-0.8,0.7l0,0.5
	c0,0,0,0,0,0h0l0,0.5c0,0,0,0,0,0H26c0.5,0,0.8,0.4,0.8,0.8c0,0.4-0.3,0.8-0.8,0.8H25.7z M13.6,16.1v8H9.7v-8H13.6z"/>
<path class="st0" d="M17.9,35.9C8.1,35.9,0,27.8,0,17.9C0,8.1,8.1,0,17.9,0c9.9,0,17.9,8.1,17.9,17.9C35.9,27.8,27.8,35.9,17.9,35.9
	z M17.9,2C9.2,2,2,9.2,2,17.9c0,8.8,7.2,15.9,15.9,15.9s15.9-7.2,15.9-15.9C33.9,9.2,26.7,2,17.9,2z"/>
<line class="st1" x1="4" y1="7.5" x2="31.7" y2="28.1"/>
</svg>
